HIERARCHY
ROOT hip
{
	OFFSET 0.000000 0.000000 0.000000 
	CHANNELS 6 Xposition Yposition Zposition Xrotation Zrotation Yrotation
	JOINT abdomen
	{
		OFFSET 0.000000 3.402643 0.000000 
		CHANNELS 3 Xrotation Zrotation Yrotation
		JOINT chest
		{
			OFFSET 0.000000 8.438565 -0.680529 
			CHANNELS 3 Xrotation Zrotation Yrotation
			JOINT neck
			{
				OFFSET 0.000000 10.207942 -0.272212 
				CHANNELS 3 Xrotation Zrotation Yrotation
				JOINT head
				{
					OFFSET 0.000000 3.130431 0.000000 
					CHANNELS 3 Xrotation Zrotation Yrotation
					End Site
					{
						OFFSET 0.000000 3.130435 0.000000 
					}
				}
			}
			JOINT lCollar
			{
				OFFSET 3.470700 6.669187 -0.816635 
				CHANNELS 3 Yrotation Zrotation Xrotation
				JOINT lShldr
				{
					OFFSET 3.198488 0.000000 0.000000 
					CHANNELS 3 Zrotation Yrotation Xrotation
					JOINT lForeArm
					{
						OFFSET 10.139888 0.000000 0.000000 
						CHANNELS 3 Yrotation Zrotation Xrotation
						JOINT lHand
						{
							OFFSET 8.370511 0.000000 0.000000 
							CHANNELS 3 Zrotation Yrotation Xrotation
							End Site
							{
								OFFSET 4.083176 0.000000 0.000000 
							}
						}
					}
				}
			}
			JOINT rCollar
			{
				OFFSET -3.470700 6.669187 -0.816635 
				CHANNELS 3 Yrotation Zrotation Xrotation
				JOINT rShldr
				{
					OFFSET -3.198488 0.000000 0.000000 
					CHANNELS 3 Zrotation Yrotation Xrotation
					JOINT rForeArm
					{
						OFFSET -10.139888 0.000000 0.000000 
						CHANNELS 3 Yrotation Zrotation Xrotation
						JOINT rHand
						{
							OFFSET -8.370511 0.000000 0.000000 
							CHANNELS 3 Zrotation Yrotation Xrotation
							End Site
							{
								OFFSET -4.083176 0.000000 0.000000 
							}
						}
					}
				}
			}
		}
	}
	JOINT lThigh
	{
		OFFSET 5.308129 -1.633274 1.361059 
		CHANNELS 3 Xrotation Zrotation Yrotation
		JOINT lShin
		{
			OFFSET -2.041588 -20.007561 0.000000 
			CHANNELS 3 Xrotation Zrotation Yrotation
			JOINT lFoot
			{
				OFFSET 0.000000 -19.190928 -1.224953 
				CHANNELS 3 Xrotation Yrotation Zrotation
				End Site
				{
					OFFSET 0.000000 -2.449906 4.627600 
				}
			}
		}
	}
	JOINT rThigh
	{
		OFFSET -5.308129 -1.633274 1.361059 
		CHANNELS 3 Xrotation Zrotation Yrotation
		JOINT rShin
		{
			OFFSET 2.041588 -20.007561 0.000000 
			CHANNELS 3 Xrotation Zrotation Yrotation
			JOINT rFoot
			{
				OFFSET 0.000000 -19.190928 -1.224953 
				CHANNELS 3 Xrotation Yrotation Zrotation
				End Site
				{
					OFFSET 0.000000 -2.449906 4.627600 
				}
			}
		}
	}
}
MOTION
Frames: 15
Frame Time: 0.016667
0.383500 36.559689 -0.230932 14.464900 -3.092330 -6.959800 -14.520800 4.944370 1.098810 10.529000 4.231480 0.883952 9.705250 -5.562030 1.506420 11.643100 3.488220 1.015980 2.000000 -2.000000 0.000000 -69.425797 -7.125100 130.723999 55.889198 -0.291520 0.113249 0.044736 -0.005742 -138.973007 -2.000000 2.000000 0.000000 69.916100 7.170290 143.960007 -79.981003 0.238635 0.134640 1.287140 -1.145910 -120.101997 -63.976059 9.993789 20.222393 56.081997 1.206631 3.884771 -6.896579 5.953581 -1.981613 -31.902752 2.144748 -12.153937 76.110146 0.444473 -4.671950 -29.873932 0.768204 0.354652 
0.344701 36.431065 -0.541978 14.377500 -3.140850 -6.937870 -14.511900 4.916290 0.995655 10.460100 4.259420 0.824963 9.447050 -5.650770 1.762230 11.554900 3.479430 1.136300 2.000000 -2.000000 0.000000 -69.396004 -7.076700 130.449997 55.850101 -0.291597 0.113197 0.044735 -0.005715 -138.962997 -2.000000 2.000000 0.000000 70.023399 7.102070 143.891006 -79.902901 0.238818 0.134607 1.287990 -1.144770 -120.209000 -64.357628 9.817323 19.582655 56.286877 1.212355 3.880051 -6.534639 6.219671 -2.029014 -32.342373 2.108446 -12.376681 76.650185 0.513638 -4.679364 -30.120424 0.654791 0.321570 
0.300428 36.371071 -0.813346 14.458400 -3.319420 -6.949360 -14.533400 4.958100 0.913150 10.509300 4.240840 0.792922 9.230460 -5.619590 1.959750 11.457600 3.528830 1.234340 2.000000 -2.000000 0.000000 -69.376404 -6.998670 130.391006 55.771999 -0.291751 0.113092 0.044753 -0.006207 -139.139008 -2.000000 2.000000 0.000000 70.120796 6.868010 143.725006 -79.932198 0.238749 0.134619 1.296780 -1.143080 -120.160004 -64.849670 9.764031 18.949572 56.207306 1.237447 3.866940 -6.001539 6.610839 -2.064042 -32.922161 2.298346 -12.642513 77.062782 0.558140 -4.693312 -29.761675 0.505554 0.246452 
0.256151 36.311310 -1.084717 14.539400 -3.497860 -6.951560 -14.554800 4.999890 0.830600 10.558600 4.212620 0.762540 9.004300 -5.598020 2.156010 11.350500 3.588020 1.323090 2.000000 -2.000000 0.000000 -69.366501 -6.920630 130.332993 55.693901 -0.291905 0.112987 0.044774 -0.006726 -139.324005 -2.000000 2.000000 0.000000 70.208397 6.633940 143.567993 -79.971199 0.238658 0.134636 1.287530 -1.146590 -120.121002 -65.340515 9.711946 18.327305 56.030891 1.237374 3.853481 -5.352560 7.001774 -2.097528 -33.482979 2.477292 -12.895992 77.466232 0.626203 -4.709543 -29.411858 0.369003 0.193352 
0.197178 36.239975 -1.351621 14.452000 -3.537070 -6.985220 -14.515300 4.948280 0.776814 10.607700 4.203630 0.738511 8.883710 -5.742980 2.409180 11.301400 3.569140 1.444510 2.000000 -2.000000 0.000000 -69.268600 -6.998940 130.216003 55.781700 -0.291732 0.113105 0.044799 -0.007300 -139.529007 -2.000000 2.000000 0.000000 70.315697 6.555910 143.518997 -79.785698 0.239093 0.134558 1.296130 -1.144550 -120.063004 -65.637543 9.656374 17.972771 55.950638 1.282861 3.841099 -4.767365 7.303046 -2.213108 -33.928410 2.548614 -12.972754 77.957993 0.677537 -4.739707 -29.341963 0.467313 0.274606 
0.138202 36.168865 -1.618537 14.364500 -3.576310 -7.009000 -14.475800 4.900090 0.732136 10.656800 4.194640 0.714467 8.762510 -5.877610 2.673270 11.262100 3.550160 1.566580 2.000000 -2.000000 0.000000 -69.180496 -7.067460 130.108002 55.869598 -0.291558 0.113223 0.044826 -0.007873 -139.733994 -2.000000 2.000000 0.000000 70.422997 6.468130 143.460007 -79.609901 0.239506 0.134483 1.286280 -1.147020 -119.994003 -65.916870 9.589585 17.608891 55.753399 1.318655 3.827198 -4.070274 7.608773 -2.305126 -34.404057 2.613264 -13.040910 78.449249 0.739106 -4.752100 -29.271660 0.552346 0.381019 
0.065802 36.101799 -1.879218 13.950900 -3.402690 -7.016850 -14.603700 4.932880 0.733737 10.577900 4.241730 0.710088 8.549490 -6.244360 3.043460 11.134100 3.464200 1.723620 2.000000 -2.000000 0.000000 -69.366402 -7.018380 130.274002 56.055199 -0.291191 0.113471 0.044828 -0.007901 -139.744003 -2.000000 2.000000 0.000000 70.461899 6.106970 143.371994 -79.746597 0.239185 0.134541 1.297170 -1.143750 -120.180000 -65.696609 9.453667 17.624813 55.468948 1.336663 3.817087 -3.340071 7.579489 -2.391509 -34.618198 2.566031 -12.915863 79.008888 0.783937 -4.771250 -29.149557 0.199698 0.164784 
-0.006597 36.034843 -2.139920 13.537500 -3.228260 -7.027230 -14.731400 4.959600 0.746835 10.489100 4.288660 0.704849 8.337100 -6.602410 3.408320 11.006100 3.378180 1.890810 2.000000 -2.000000 0.000000 -69.552200 -6.979060 130.440002 56.230999 -0.290843 0.113704 0.044830 -0.007955 -139.764008 -2.000000 2.000000 0.000000 70.510498 5.745790 143.292999 -79.883301 0.238864 0.134599 1.298240 -1.140360 -120.365997 -65.485657 9.318943 17.649866 55.192345 1.377303 3.778963 -2.621775 7.542962 -2.491464 -34.832436 2.529264 -12.783588 79.558022 0.825011 -4.773700 -29.013216 -0.188360 -0.040582 
-0.104447 35.993839 -2.371091 13.292800 -3.212530 -7.077350 -14.532800 4.899710 0.868051 10.537200 4.356620 0.755246 8.454660 -6.687630 3.783820 11.025900 3.407070 2.071310 2.000000 -2.000000 0.000000 -69.435600 -7.222760 130.723999 56.064999 -0.291172 0.113484 0.044811 -0.007545 -139.617004 -2.000000 2.000000 0.000000 70.637001 5.560840 142.979996 -79.688004 0.239323 0.134516 1.288620 -1.143250 -120.306999 -65.429619 9.447729 17.628183 54.984650 1.427965 3.762694 -1.897983 7.240522 -2.559561 -35.043224 2.702869 -12.796762 79.863235 0.868874 -4.792942 -29.079599 -0.421720 -0.124917 
-0.202298 35.952839 -2.602271 13.038100 -3.187320 -7.124870 -14.343800 4.833400 1.000320 10.575400 4.424470 0.804253 8.572320 -6.762970 4.160290 11.045600 3.426270 2.260410 2.000000 -2.000000 0.000000 -69.328697 -7.476220 131.007004 55.889198 -0.291520 0.113249 0.044792 -0.007136 -139.470993 -2.000000 2.000000 0.000000 70.773300 5.375870 142.677002 -79.483002 0.239804 0.134428 1.297420 -1.141570 -120.258003 -65.371338 9.592330 17.604822 54.788025 1.443695 3.747895 -1.188667 6.967500 -2.622218 -35.263115 2.885596 -12.804155 80.158371 0.915403 -4.799278 -29.163996 -0.649353 -0.217309 
-0.309507 35.912960 -2.869142 12.871700 -3.179930 -6.771670 -14.402200 4.790250 0.966846 10.537200 4.356620 0.794308 8.788110 -7.076430 4.772350 11.113800 3.386860 2.552640 2.000000 -2.000000 0.000000 -69.339104 -7.641750 131.320007 55.967300 -0.291365 0.113354 0.044762 -0.006425 -139.216995 -2.000000 2.000000 0.000000 70.909599 5.073580 142.442001 -79.512199 0.239735 0.134441 1.298280 -1.137790 -120.433998 -65.437737 9.447267 17.496790 54.374119 1.493921 3.708620 -0.328398 6.807725 -2.738861 -35.550930 2.946593 -13.076914 80.472702 0.941152 -4.811347 -28.820942 -1.056259 -0.432148 
-0.416714 35.872967 -3.136013 12.705200 -3.162960 -6.416370 -14.470200 4.740900 0.944323 10.489100 4.288660 0.782974 9.005390 -7.380080 5.372240 11.191600 3.347370 2.855120 2.000000 -2.000000 0.000000 -69.349503 -7.807250 131.643005 56.035702 -0.291230 0.113445 0.044736 -0.005742 -138.973007 -2.000000 2.000000 0.000000 71.045898 4.761540 142.197006 -79.531799 0.239689 0.134449 1.300240 -1.138500 -120.599998 -65.513702 9.302861 17.386761 53.999638 1.541873 3.676081 0.505352 6.630203 -2.836590 -35.809868 3.003713 -13.345082 80.747932 0.985159 -4.811277 -28.451424 -1.485942 -0.647444 
-0.534936 35.892513 -3.419487 12.469100 -3.051430 -6.055350 -14.459200 4.684330 0.959579 10.558400 4.231860 0.798223 8.656010 -7.941970 6.220780 11.034000 3.222830 3.249870 2.000000 -2.000000 0.000000 -69.467598 -8.040880 132.112000 56.367699 -0.290572 0.113885 0.044730 -0.005578 -138.914001 -2.000000 2.000000 0.000000 71.191803 4.645070 141.815994 -79.453697 0.239873 0.134415 1.299830 -1.140450 -120.512001 -65.303459 8.996212 17.288996 53.312668 1.592102 3.654006 1.287771 6.101562 -2.870667 -35.949104 2.932078 -13.541887 80.886398 0.994538 -4.840202 -28.548727 -1.512250 -0.621395 
-0.653157 35.912060 -3.702972 12.223400 -2.939750 -5.695300 -14.448200 4.627770 0.974817 10.617900 4.174900 0.812626 8.308560 -8.505600 7.057620 10.876400 3.098180 3.636100 2.000000 -2.000000 0.000000 -69.595398 -8.274500 132.580994 56.699699 -0.289911 0.114322 0.044724 -0.005414 -138.854996 -2.000000 2.000000 0.000000 71.347397 4.518850 141.423996 -79.385300 0.240033 0.134385 1.289450 -1.142030 -120.415001 -65.043076 8.664553 17.244349 52.487648 1.648328 3.608698 2.135613 5.586681 -2.853719 -36.089256 2.857475 -13.718257 81.033371 1.016455 -4.829746 -28.653555 -1.576697 -0.633952 
-0.803312 35.951714 -4.024103 11.887200 -3.459530 -5.366860 -14.419000 4.720140 1.083560 10.631000 3.905680 0.909163 8.264510 -9.068280 7.943750 10.846000 2.972370 4.058900 2.000000 -2.000000 0.000000 -69.723396 -8.537290 133.128006 56.943901 -0.289423 0.114641 0.044740 -0.005851 -139.011993 -2.000000 2.000000 0.000000 71.513397 4.245470 141.395004 -79.473198 0.239827 0.134424 1.298860 -1.138790 -120.463997 -64.980003 8.568263 16.222607 51.719276 1.733566 3.544771 3.333347 5.660092 -2.937303 -36.037426 3.610260 -13.986650 80.808304 1.007586 -4.835908 -28.383553 -1.524456 -0.534510 
